<svg width="40" height="54" fill="none" xmlns="http://www.w3.org/2000/svg"><path d="M7.063.75C3.463.75.5 3.714.5 7.313c0 2.828 1.846 5.239 4.375 6.153v27.068C2.346 41.448.5 43.86.5 46.688c0 3.598 2.964 6.562 6.563 6.562 3.598 0 6.562-2.964 6.562-6.563 0-2.778-1.785-5.127-4.24-6.083.318-2.69 1.361-4.016 3.01-5.127 1.965-1.324 4.982-2.111 8.27-2.873 3.292-.759 6.82-1.546 9.777-3.622 2.597-1.82 4.561-4.802 4.988-8.954 2.568-.899 4.445-3.31 4.445-6.153 0-3.598-2.964-6.563-6.563-6.563-3.598 0-6.562 2.965-6.562 6.563 0 2.793 1.82 5.145 4.307 6.083-.3 2.873-1.41 4.299-3.078 5.47-1.964 1.377-4.998 2.187-8.268 2.94-3.275.752-6.821 1.417-9.778 3.418-.239.162-.46.366-.683.547V13.466c2.529-.914 4.375-3.325 4.375-6.153 0-3.599-2.964-6.563-6.563-6.563zm0 4.375A2.16 2.16 0 019.25 7.313 2.16 2.16 0 017.062 9.5a2.16 2.16 0 01-2.187-2.188 2.16 2.16 0 012.188-2.187zm26.25 6.563a2.16 2.16 0 012.187 2.187 2.16 2.16 0 01-2.188 2.188 2.16 2.16 0 01-2.187-2.188 2.16 2.16 0 012.188-2.188zM7.063 44.5a2.16 2.16 0 012.187 2.188 2.16 2.16 0 01-2.188 2.187 2.16 2.16 0 01-2.187-2.188A2.16 2.16 0 017.063 44.5z" fill="#B31918"/></svg>