<svg width="44" height="52" fill="none" xmlns="http://www.w3.org/2000/svg"><path d="M22 .75A19.606 19.606 0 002.313 20.438c-.657 0-1.313.437-1.75.875-.438.656-.657 1.312-.22 1.968l2.188 6.563c.219.875 1.094 1.531 1.969 1.531h1.098c.418.63.875 1.227 1.363 1.803a15.13 15.13 0 002.376 2.832 19.688 19.688 0 00-7.024 15.053h4.375c0-4.966 2.362-9.551 6.396-12.485a15.382 15.382 0 006.729 1.547h4.375c2.302 0 4.575-.515 6.652-1.51 3.99 2.82 6.473 7.539 6.473 12.447h4.374A19.402 19.402 0 0034.6 36.07a15.08 15.08 0 002.44-2.892c.487-.575.944-1.172 1.362-1.802H39.5c.875 0 1.75-.656 1.969-1.531l2.187-6.563c.438-.656.219-1.312-.218-1.968-.438-.438-1.094-.875-1.75-.875A19.606 19.606 0 0022 .75zm0 4.375a15.192 15.192 0 0115.102 12.863 10.82 10.82 0 00-8.54-4.113H15.438a10.822 10.822 0 00-8.54 4.113A15.192 15.192 0 0122 5.125zM15.437 18.25h13.126c3.718 0 6.562 2.844 6.562 6.563 0 1.564-.32 3.04-.888 4.375h-10.05c-1.312 0-2.187 1.093-2.187 2.187 0 1.313 1.094 2.188 2.188 2.188h5.73A15.33 15.33 0 0122 35.75c-4.594 0-8.67-1.977-11.463-5.128a10.968 10.968 0 01-1.662-5.81c0-3.718 2.844-6.562 6.563-6.562z" fill="#B31918"/></svg>