<svg width="40" height="54" fill="none" xmlns="http://www.w3.org/2000/svg"><path d="M20 .75C9.157.75.312 9.594.312 20.438c0 4.195 1.847 8.544 4.375 12.442 1.882 2.896 4.128 5.56 6.563 7.586v6.221c0 2.394 1.982 4.376 4.375 4.376l2.188 2.187h4.375l2.187-2.188c2.393 0 4.375-1.981 4.375-4.374v-6.222c2.435-2.025 4.681-4.69 6.563-7.586 2.528-3.898 4.374-8.247 4.374-12.443C39.688 9.595 30.843.75 20 .75zm0 4.375a15.276 15.276 0 0115.313 15.313c0 2.863-1.411 6.639-3.623 10.049-1.975 3.04-4.572 5.75-6.974 7.45h-9.432c-2.402-1.7-4.999-4.41-6.974-7.45-2.212-3.41-3.623-7.186-3.623-10.05A15.276 15.276 0 0120 5.126zm-3.828 37.188h7.656c.17.12.35.205.547.273v4.102h-8.75v-4.102c.194-.065.378-.157.547-.273z" fill="#B31918"/></svg>