<svg width="17" height="20" fill="none" xmlns="http://www.w3.org/2000/svg"><path d="M8.193 20a33.99 33.99 0 01-4.097-3.923C2.224 13.954 0 10.793 0 7.78c0-1.538.48-3.043 1.38-4.322A8.116 8.116 0 015.057.592 8.602 8.602 0 019.793.15c1.59.3 3.05 1.042 4.196 2.13a7.712 7.712 0 011.779 2.522c.411.944.621 1.957.618 2.978 0 3.013-2.224 6.174-4.097 8.297A33.99 33.99 0 018.193 20zm0-15.553c-.931 0-1.824.352-2.483.977A3.25 3.25 0 004.682 7.78c0 .884.37 1.732 1.028 2.357a3.609 3.609 0 002.483.976 3.61 3.61 0 002.483-.976 3.25 3.25 0 001.028-2.357 3.25 3.25 0 00-1.028-2.356 3.61 3.61 0 00-2.483-.977z" fill="#B31918"/></svg>