<svg width="19" height="24" fill="none" xmlns="http://www.w3.org/2000/svg"><path d="M8.903 16.743l3.95-4.704-3.95-4.704m3.95 4.705H1" stroke="#000" stroke-width="1.5" stroke-linecap="round" stroke-linejoin="round"/><path d="M2.317 8.903V4.186c0-.83.276-1.625.768-2.213.491-.588 1.159-.92 1.855-.923L15.414 1c.346-.002.689.078 1.009.234.32.156.611.386.857.676.245.29.44.635.574 1.016.134.38.203.787.204 1.2l.053 15.725c.001.412-.065.82-.197 1.201a3.237 3.237 0 01-.567 1.02 2.66 2.66 0 01-.852.684c-.32.16-.662.242-1.008.244H4.951c-.699 0-1.369-.33-1.863-.919-.494-.588-.771-1.385-.771-2.217v-4.689" stroke="#000" stroke-width="1.5" stroke-linecap="round" stroke-linejoin="round"/></svg>