<svg width="24" height="24" fill="none" xmlns="http://www.w3.org/2000/svg"><path fill-rule="evenodd" clip-rule="evenodd" d="M12 22.8c5.965 0 10.8-4.835 10.8-10.8 0-5.965-4.835-10.8-10.8-10.8C6.035 1.2 1.2 6.035 1.2 12c0 5.965 4.835 10.8 10.8 10.8zm0 1.2c6.628 0 12-5.372 12-12S18.628 0 12 0 0 5.372 0 12s5.372 12 12 12z" fill="#B31918"/><path d="M4.8 18.978c0-.62.463-1.144 1.08-1.212 4.629-.512 7.632-.466 12.25.011a1.194 1.194 0 01.666 2.084c-5.451 4.751-8.567 4.686-13.612.004a1.211 1.211 0 01-.384-.886v-.001z" fill="#B31918"/><path fill-rule="evenodd" clip-rule="evenodd" d="M18.069 18.374c-4.582-.474-7.542-.519-12.124-.012a.617.617 0 00-.353 1.064c2.5 2.32 4.396 3.367 6.248 3.374 1.859.007 3.855-1.033 6.561-3.391a.595.595 0 00-.332-1.035zM5.814 17.17c4.678-.518 7.724-.471 12.38.01a1.794 1.794 0 01.996 3.133c-2.745 2.393-5.03 3.696-7.354 3.687-2.33-.008-4.515-1.334-7.06-3.695a1.81 1.81 0 01-.576-1.327 1.817 1.817 0 011.614-1.809z" fill="#B31918"/><path d="M16.8 9.6a4.8 4.8 0 11-9.6 0 4.8 4.8 0 019.6 0z" fill="#B31918"/><path fill-rule="evenodd" clip-rule="evenodd" d="M12 13.2A3.6 3.6 0 1012 6a3.6 3.6 0 000 7.2zm0 1.2a4.8 4.8 0 100-9.6 4.8 4.8 0 000 9.6z" fill="#B31918"/></svg>