<svg width="40" height="54" fill="none" xmlns="http://www.w3.org/2000/svg"><path d="M19.977 53.864L4.393 49.538.92 10.586h38.16l-3.476 38.946-15.627 4.332z" fill="#264DE4"/><path d="M32.627 47.05l2.971-33.28H20v36.78l12.627-3.5z" fill="#2965F1"/><path d="M8.88 28.217l.429 4.777h10.69v-4.777H8.882zm-.86-9.67l.435 4.777H20v-4.777H8.02zM20 40.624l-.021.006-5.32-1.437-.34-3.81H9.521l.67 7.5 9.786 2.717.022-.006v-4.97z" fill="#EBEBEB"/><path d="M9.9 0h5.787v2.42H12.32v2.42h3.367v2.419H9.9V0zm6.944 0h5.786v2.104h-3.367v.42h3.367v4.84h-5.786v-2.21h3.366v-.42h-3.366V0zm6.943 0h5.786v2.104h-3.366v.42h3.366v4.84h-5.786v-2.21h3.367v-.42h-3.367V0z" fill="#000"/><path d="M31.088 28.216l.863-9.67H19.983v4.778h6.732l-.435 4.892h-6.297v4.777h5.883l-.554 6.196-5.329 1.438v4.97l9.794-2.714.072-.807L30.972 29.5l.116-1.283z" fill="#fff"/></svg>