<svg width="54" height="49" fill="none" xmlns="http://www.w3.org/2000/svg"><path d="M44.399 16.525a35.99 35.99 0 00-1.739-.547c.099-.401.189-.797.27-1.186 1.315-6.388.455-11.533-2.483-13.227-2.817-1.625-7.425.069-12.077 4.118-.448.39-.896.802-1.345 1.234a32.816 32.816 0 00-.895-.827c-4.876-4.33-9.764-6.154-12.7-4.455-2.813 1.63-3.647 6.467-2.462 12.52.114.585.248 1.182.399 1.79-.692.195-1.36.405-1.999.628C3.651 18.566 0 21.69 0 24.93c0 3.347 3.92 6.703 9.874 8.739.47.16.958.312 1.46.456-.163.657-.305 1.3-.424 1.928-1.13 5.948-.247 10.671 2.56 12.29 2.899 1.672 7.765-.046 12.503-4.188.374-.327.75-.675 1.127-1.038.488.47.975.914 1.46 1.331 4.589 3.95 9.121 5.544 11.926 3.92 2.896-1.676 3.837-6.75 2.615-12.923a30.533 30.533 0 00-.324-1.443c.342-.101.678-.205 1.005-.314C49.972 31.638 54 28.321 54 24.93c0-3.252-3.769-6.397-9.601-8.405zM43.056 31.5c-.295.097-.598.192-.907.283-.683-2.163-1.606-4.464-2.734-6.84 1.077-2.321 1.964-4.592 2.628-6.742.552.16 1.088.329 1.605.506 4.997 1.72 8.045 4.264 8.045 6.224 0 2.087-3.292 4.797-8.637 6.569zm-2.218 4.394c.54 2.73.618 5.198.26 7.127-.322 1.734-.968 2.89-1.768 3.352-1.702.986-5.341-.295-9.266-3.672-.45-.387-.903-.8-1.358-1.238 1.522-1.665 3.042-3.6 4.527-5.748 2.61-.231 5.076-.61 7.313-1.127.11.444.208.88.292 1.306zM18.41 46.203c-1.663.586-2.987.603-3.788.142-1.703-.983-2.411-4.775-1.445-9.862.11-.583.242-1.181.394-1.793 2.212.49 4.66.841 7.277 1.054 1.494 2.102 3.059 4.035 4.636 5.727-.345.332-.688.649-1.03.947-2.094 1.831-4.194 3.13-6.044 3.784zm-7.79-14.717c-2.633-.9-4.807-2.07-6.298-3.346-1.339-1.147-2.015-2.286-2.015-3.21 0-1.966 2.931-4.474 7.82-6.18a33.33 33.33 0 011.86-.584 55.297 55.297 0 002.631 6.82c-1.083 2.358-1.982 4.693-2.665 6.917a28.31 28.31 0 01-1.333-.417zm2.612-17.774c-1.015-5.186-.341-9.099 1.355-10.08 1.806-1.046 5.801.445 10.012 4.184.269.239.539.489.81.747a55.265 55.265 0 00-4.6 5.693c-2.54.235-4.971.614-7.206 1.12-.14-.565-.265-1.12-.371-1.664zm23.293 5.752a73.297 73.297 0 00-1.642-2.7c1.722.217 3.373.506 4.923.86a49.285 49.285 0 01-1.728 4.65 80.389 80.389 0 00-1.553-2.81zm-9.5-9.252a49.336 49.336 0 013.178 3.836 67.913 67.913 0 00-6.382-.001 50.88 50.88 0 013.205-3.835zm-9.559 9.268a68.152 68.152 0 00-1.524 2.792 50.943 50.943 0 01-1.716-4.672 51.996 51.996 0 014.895-.84 67.87 67.87 0 00-1.655 2.72zm1.705 13.785a49.081 49.081 0 01-4.977-.8 51.815 51.815 0 011.75-4.767 68.098 68.098 0 003.226 5.567zm7.919 6.546a51.782 51.782 0 01-3.25-3.889c1.035.04 2.089.062 3.16.062a73.3 73.3 0 003.26-.073 49.087 49.087 0 01-3.17 3.9zM38.1 27.615a48.922 48.922 0 011.813 4.75 49.015 49.015 0 01-5.037.859 80.604 80.604 0 001.658-2.748 74.37 74.37 0 001.566-2.861zm-3.564 1.709a75.651 75.651 0 01-2.59 4.18 69.465 69.465 0 01-4.946.173c-1.68 0-3.315-.052-4.89-.154a65.408 65.408 0 01-2.639-4.187 64.85 64.85 0 01-2.303-4.35 65.461 65.461 0 012.297-4.354 64.857 64.857 0 012.618-4.168A65.366 65.366 0 0127 16.279c1.672 0 3.32.064 4.926.186a69.456 69.456 0 012.602 4.155 75.585 75.585 0 012.328 4.333 69.556 69.556 0 01-2.32 4.37zm4.758-25.761c1.809 1.043 2.512 5.248 1.376 10.763-.073.352-.154.71-.243 1.074a55.257 55.257 0 00-7.22-1.14c-1.484-2.114-3.021-4.035-4.565-5.698.415-.399.83-.78 1.242-1.139 3.987-3.47 7.713-4.839 9.41-3.86zM27 20.108a4.822 4.822 0 110 9.644 4.822 4.822 0 010-9.644z" fill="#00D8FF"/></svg>