<svg width="54" height="52" fill="none" xmlns="http://www.w3.org/2000/svg"><path d="M37.416 36.069c1.993-.207 3.505-1.925 3.436-3.986-.069-2.062-1.786-3.711-3.848-3.711h-.137c-2.13.069-3.78 1.855-3.711 3.986.069 1.03.48 1.924 1.1 2.542-2.337 4.605-5.91 7.972-11.27 10.79-3.642 1.924-7.422 2.61-11.201 2.13-3.093-.413-5.498-1.787-7.01-4.055-2.198-3.367-2.405-7.01-.55-10.651 1.306-2.612 3.368-4.536 4.674-5.498-.275-.893-.688-2.405-.894-3.505-9.964 7.216-8.933 16.974-5.91 21.578 2.268 3.436 6.872 5.567 11.957 5.567 1.375 0 2.75-.138 4.123-.481 8.796-1.718 15.462-6.941 19.241-14.706zm12.095-8.522c-5.223-6.116-12.92-9.483-21.715-9.483h-1.1a3.776 3.776 0 00-3.367-2.061h-.137c-2.13.068-3.78 1.855-3.71 3.985.068 2.062 1.786 3.711 3.847 3.711h.138a3.87 3.87 0 003.367-2.336h1.237c5.222 0 10.17 1.511 14.637 4.466 3.435 2.268 5.91 5.223 7.284 8.797 1.168 2.886 1.099 5.703-.138 8.108-1.924 3.643-5.154 5.636-9.414 5.636-2.749 0-5.36-.825-6.734-1.444-.756.688-2.13 1.787-3.093 2.474 2.955 1.375 5.979 2.13 8.865 2.13 6.597 0 11.476-3.642 13.331-7.284 1.993-3.986 1.855-10.857-3.298-16.699zm-34.909 9.69c.069 2.061 1.787 3.71 3.848 3.71h.138c2.13-.068 3.78-1.855 3.71-3.985-.068-2.062-1.786-3.71-3.848-3.71h-.137c-.137 0-.344 0-.481.068-2.818-4.673-3.986-9.758-3.573-15.256.274-4.123 1.649-7.697 4.054-10.652 1.993-2.542 5.84-3.78 8.452-3.848 7.284-.137 10.376 8.934 10.583 12.576.893.206 2.405.687 3.435 1.03C39.96 6.039 33.087.267 26.49.267c-6.184 0-11.888 4.466-14.155 11.063-3.162 8.797-1.1 17.25 2.748 23.915-.343.481-.55 1.237-.48 1.993z" fill="#764ABC"/></svg>