<svg width="54" height="54" fill="none" xmlns="http://www.w3.org/2000/svg"><path d="M0 27v27h54V0H0v27zm43.517-2.151c1.373.342 2.417.952 3.377 1.946.498.531 1.236 1.499 1.294 1.733.018.067-2.33 1.642-3.753 2.527-.052.033-.259-.19-.488-.532-.698-1.012-1.424-1.448-2.538-1.525-1.638-.113-2.691.745-2.682 2.176a1.98 1.98 0 00.23 1.012c.36.745 1.03 1.193 3.127 2.1 3.868 1.664 5.521 2.76 6.55 4.32 1.147 1.739 1.406 4.517.625 6.583-.855 2.245-2.981 3.771-5.974 4.275-.924.164-3.118.14-4.112-.04-2.17-.388-4.226-1.459-5.495-2.865-.497-.546-1.467-1.98-1.406-2.081.025-.036.247-.173.495-.317.243-.138 1.15-.662 2.007-1.159l1.552-.9.327.482c.454.692 1.446 1.644 2.047 1.961 1.723.91 4.088.781 5.254-.265a1.987 1.987 0 00.704-1.62c0-.625-.079-.9-.405-1.372-.419-.599-1.276-1.103-3.71-2.16-2.786-1.2-3.985-1.944-5.083-3.128a7.122 7.122 0 01-1.483-2.7c-.204-.763-.256-2.675-.094-3.445.573-2.693 2.605-4.567 5.537-5.125.952-.18 3.163-.113 4.097.119zm-12.676 2.255l.018 2.211h-7.032v19.971h-4.972v-19.97h-7.024v-2.17c0-1.201.024-2.205.058-2.227.027-.036 4.304-.054 9.488-.045l9.439.027.025 2.203z" fill="#3178C6"/></svg>